<svg width="476" height="69" viewBox="0 0 476 69" xmlns="http://www.w3.org/2000/svg"><title>Dirtfish Logo</title><g fill="#FF5000" fill-rule="evenodd"><path d="M83.972 21.677c.668.003.997-.489 1-1.321.002-3.739-2.908-2.663-3.321-3.994-.752.255-.752.747-.749 1.42-.003.575 2.159 3.9 3.07 3.895m-4.982-1.992c-.749.248-.753 1-.751 1.658.002 1.587 1.239 3.247 2.904 3.252.002-2.163-.492-3.578-2.153-4.91"/><path d="M84.962 37.063l-1.335 1.243c-.081.087-.081.25-.081.411-.003.337.081.668.079 1.088 0 .494-.166.911-.494 1.162l.004-4.649c.579-.257 1.243-.419 1.827-.589.084.087.084.505.08.666.004.165 0 .667-.08.668zm-1.837 8.393l.003-1.5.499 1.082c-.168.086-.334.249-.502.418zm-4.16 10.305c-1.083 1.914-3.33 4.069-4.829 5.479-.331.251-.417.414-.496.493-.169-.075-.415-.163-.582-.159-1.41-.006-3.25 2.326-4.156 2.824l-.002-.336c-.003-1.491 1.746-2.82 1.996-4.319.334.082.75.082 1.081.084 2.908 0 4.824-2.16 4.989-5.315l2.584.002-.585 1.247zm-.673 4.069v-.747l1.253.002c-.169.501-.754.746-1.253.745zm-12.055 5.226c-.16-.165-.58-1.08-.666-1.325.003-.083.089-.335.086-.419-.749 0-4.07-.247-4.737-.247-1.33.161-2.241 1.321-3.739 1.321h-.334c1.414-1.574 4.406-2.321 4.659-4.649.665 1.078 3.409 1.917 3.734 1.999l.002-2.665c1.419.088 1.661 2.749 1.661 3.333.005.408-.499 2.323-.666 2.652zm8.679-51.189l.002-.833 2.074-.005c-.327.749-1.41.838-2.076.838zM50.777 63.716l.749.005.002 1.997c-.414-.498-.749-1.334-.751-2.002zM65.859 9.78c-1.079.009-2.326-.079-2.326-.83 0-.497.995-1.99 1.742-1.99 1.252.002 1.424 2.08 2.331 2.746-.253 0-1.41.085-1.747.074zm-1.579 7.9l-1.329-1.33c.243-.832.751-.828 1.329-.834.494.004 1.08.006 1.324.837L64.28 17.68zm-5.316-8.645c-.081-.002-.577-.004-.749-.09.081-.325.582-2.243.751-2.57 0-.247.494-.744.661-.744.754-.006 1.417.328 1.41.995.003 1.162-.909 2.412-2.073 2.409zm-14.298-.928l-1.408.004c.081-.993.58-2.162 1.658-2.494.496.002 1.164.332 1.329.745-.494.584-.995 1.331-1.579 1.745zm-1.085 8.397c-.669 0-1.416-.497-1.42-1.16.002-.751.589-.999 1.424-.999l-.004 2.159zM38.267 7.02c-.164.003-.665-.081-.749-.081.585-.744 1.248-1.583 2.163-1.575-.002.998-.5 1.661-1.414 1.656zm48.027 19.317c.002-.575.169-.991.167-1.496 0-.747-.162-1.658-.828-1.823-.578.408-2.075 2.321-2.083 2.988.003.832.587.83 1.169.832-.005 1.415-.503 1.501-1.002 1.498-.084 0-.658.494-.83.747l-2.164 3.49-3.491-2.58.335-.91c.415-.002.748.084.997.077.748.005 1.415-.995 1.751-1.41-.589-.499-1.83-2.499-3.076-3.744l1.087-6.151c.994-.25.997-1.156 1.996-1.493.58-.167.746-.751.746-1.327.005-.334-.083-.751-.078-.999 0-2.999-2.58-3.241-4.739-5.072-.915.494-.75 1.99-1.335 2.742 0 0-3.987-.673-3.99-1.751.003-.33.175-.997.675-.994.079-.002 1.162.661 1.325.747.246 0 1.825.081 1.995.086 0-3.409-1.661-1.751-3.322-2.828-4.574-2.995-7.15-2.832-12.633-3.339-.331.005-3.072-.663-3.407-.663-.085 0-1.161.663-1.245.661-.251.002-.752-.496-.752-.661-4.652-.665-6.649-.749-10.716-.759-3.12.005-5.948.929-8.848 1.395.168.218.319.466.477.699.153-.034.288-.101.468-.099.919-.002 1.332.499 1.334 2.159a9.159 9.159 0 0 1-.519.225c1.931 4.121 3.033 9.841 3.458 15.361.19 2.442.63 5.867 2.372 7.482 1.876 2.636 5.204 2.507 6.39-.799.895-2.485-.358-7.219-1.385-11.248-.473.389-1.223.454-1.684.45v-.824l1.58.004c-.608-2.417-1.122-4.534-1.002-5.706.125-1.294.495-2.236.902-2.92 1.417-.504 2.855-.195 4.312.633.835-.344 1.637-.571 2.276-.576 1.163.004 2.661.504 2.661 2.091-.003.083-.904.552-1.779 1.006 3.161 3.113 6.408 7.77 9.785 11.255 6.255 6.476 12.517 10.973 12.514 12.742-.006 1.777-5.531 2.399-5.531 2.399s3.226 1.672 3.129 2.401c-.105.731-3.862 2.138-10.133 8.601-2.882 2.977-5.672 6.785-8.402 9.778-.01.119-.031.217-.033.351l-.282.001a29.66 29.66 0 0 1-1.84 1.823c.204.106.453.172.796.169l.41.008c.088-.086 1.169-.667 1.252-.667.158 0 .664.497.659.668l-.162.245c-.255 1.083-1.417 2.49-2.584 2.492-1.28.004-.551-1.644-1.317-2.115-1.957 1.543-3.871 2.315-5.766 1.635-.403-.681-.779-1.625-.904-2.915-.307-3.182 3.975-13.256 2.519-17.322-1.178-3.309-4.509-3.445-6.386-.811-1.751 1.615-2.189 5.035-2.381 7.481-.346 4.295-1.086 8.711-2.315 12.398.135-.008.274-.025.431-.025 0 .585.163 1.243.163 1.828 0 .668-.251 1.165-1.331 1.169a1.816 1.816 0 0 1-.395-.091c-.595 1.266-1.255 2.377-2.011 3.287l19.775.055c.338-.082 1.741-.582 1.994-.582h.336c1.992.003 4.075.67 6.151.665 1.908.002 2.989-.908 10.889-2.734 1.746-.417 1.915-1.496 3.323-2.651.916-.752 2.581-1.165 3.335-2.001 3.576-3.569 6.814-9.546 6.816-14.707l-1.412.008c-.246.662-1.167 2.485-1.826 3.897V48.12l1.079-2.164 2.081-1.162c1.164-.914 1.326-3.071 1.331-5.07l.004-5.319c-.665-.497-1.331-.833-1.326-1.744-.003-1.089 1.331-1.498 1.326-2.574-.164-.754-1.32-3.329-1.326-3.75zM9.145 22.436c-.184 3.889 3.415 8.095 6.691 6.744C25.1 20.618 12.964 8.374 9.721 2.932H6.76L0 3.064c4.721 4.775 8.159 14.345 8.739 17.6.11.627.243 1.216.406 1.772"/><path d="M28.118 13.498l1.584.002c-.42.332-.582.918-.584 1.916l-1.58-.417.58-1.501zm-3.632 8.317c.104 5.833 5.485 8.848 7.731 6.802 7.365-7.245-5.617-21.402-5.718-24.952a3.971 3.971 0 0 1-.079-.721l-7.865-.007c2.48 3.449 4.629 8.947 5.583 17.171.042.561.164 1.133.348 1.707zm6.352 32.415c-1.164 0-2.075 1.16-3.745 1.164.005-1.088 1.167-1.25 1.169-2.577 0-1.165-.663-1.913-.663-2.992.913 0 .999.743 1.913.75l1.243 2.074c0 .67.417 1.167.747 1.665-.249-.081-.496-.081-.664-.084zm1.369-11.153c-1.628-1.498-4.924-.3-6.638 2.707l-.044.55c.58.829.661 1.159.664 2.073 0 0-.088.504-.084.591-.302-.171-.887-.246-1.54-.313-.055.377-.089.77-.097 1.176a7.418 7.418 0 0 0-.353 1.715c-.918 7.862-2.938 13.237-5.286 16.706l7.591.017c.015-.094.015-.182.033-.29.105-3.542 13.115-17.679 5.754-24.932zm-14.754 1.25c-.038-.004-.497-.075-.655-.079-1.744 0-3.327 2.489-3.326 4.155.004.497.165.832.411 1.078l-4.154.002c.5-.255 1.495.08 2.41-1.085.256-.412 1.17-3.655 1.335-4.071.08-.164 1.247-.493 1.328-.665.291-.268.704-.655 1.127-1.057-.038-.037-.065-.079-.111-.112-.789-.331-1.602-.327-2.378-.091-.122.227-.48 1.26-.632 1.26-.44.005-.798-.119-1.141-.237a7.171 7.171 0 0 0-1.458 1.765c.408.583.688 1.137.686 1.457-.001.088-.082.341-.083.424-.388 0-.894-.063-1.364-.173a6.84 6.84 0 0 0-.322 2.323 18.024 18.024 0 0 0-.405 1.768C8.146 54.18 4.844 63.361.283 68.228l9.684.032c3.36-5.241 13.286-15.775 7.486-23.933m40.02-10.737a3.28 3.28 0 0 0 3.288-3.283 3.29 3.29 0 0 0-3.282-3.288 3.282 3.282 0 0 0-3.286 3.284 3.282 3.282 0 0 0 3.28 3.287m58.206-30.891l-18.04-.009c-2.573.003-2.743 1.99-2.741 3.988-.002.33.072 1.33.072 1.33.007.164.672 1.833.671 1.997-.003.253-.668 1.829-.666 1.993-.083.166-.083 1.159-.088 1.495.002 1.25.334 1.746 1.415 1.828l9.977.673 1.329-.664 8.727.007c.076.002.582-2.322.661-3.32.002-.175.093-2.747.095-3.659-.005-.583-.088-3.16-.086-3.743 0 0-.833-1.917-1.326-1.916m-2.032 47.464c-.413 0-.583-.586-.58-.833 0-.332.339-.583.587-.578.164.162.329.495.329.745 0 .334-.169.581-.336.666zm-8.391-.007c-.002-.083-.253-.662-.249-.749.003-.663.664-.914 1.249-1.33 0 0 .081.247.083.335 0 .665-.17 1.746-1.083 1.744zm-3.912 4.57c-.996-.004-1.996-1.167-1.993-2.077 1.165-.009 2.329.58 2.911 1.411-.253.586-.503.662-.918.666zm-3.89-21.278c0-1.253-.912-3.581-.754-3.414.007-1.66 1.012-4.4 3.169-4.404 0 1.582-1.666 1.664-1.663 2.994-.003 1.331.66 2.579 2.156 2.742-.577.919-2.08 2.084-2.908 2.082zm3.492-4.742c-.248.584-.496.745-1.001.748-.079 0-.329-.086-.329-.086l.746-1.324.584.662zm15.375 7.408c0-.329.498-1.244.663-1.412l.01-15.29c0-.084-.995-.919-1.408-1.079-.921.247-1.584 1.077-1.918 1.077-.246 0-.662-.501-.659-.75l-18.039-.013-.014 19.37c.165.162.663 1.075.668 1.415 0 .161-.508.577-.67.577l-.005 6.068c.165-.006.668.495.67.667-.007.244-.505 1.16-.672 1.325l-.011 19.368c0 .661 1.91 1.335 2.242 1.332.417.003 1.081.084 1.751.084 1.407 0 2.992-.247 3.324-1.415.908 1.334 2.323 1.334 3.738 1.339l2.992-.003c2.491-.162 7.314-.569 7.317-.654l.661-.667.018-25.352c-.162-.164-.662-1.08-.662-1.326 0-.172.665-1.246.667-1.335-.002-.083.086-.743.079-.994 0-.336-.079-1-.079-1 0-.165-.663-1.245-.663-1.332zm13.296-.321l-.747-1.416c1.083.001 1.58.334 2.078.748l-1.331.668zm56.029-5.283c0-.163-.581-1.241-.578-1.41-3.987-10.642-10.629-12.722-21.857-12.733-4.9.002-8.977 3.984-13.632 3.982-.002-.165.083-.506.085-.587-.17-.577-.577-1.993-.663-1.993l-18.704-.013c-4.073 0-3.582 4.989-3.999 7.976.003 3.822.747 7.231.742 10.643-.004.995-.088 3.817-.085 4.078l-.665 1.318c0 .254-.087 4.326-.087 5.905-.004 1.995.074 8.143.074 8.812.087 3.151.492 10.637.659 10.719l3.323.587 17.957.009c.162.002.667-.493.748-.582.249-.414.666-1.907.668-2.072l.014-24.69c-.002-.826.336-4.156 1.334-5.316.67-.833 2.582-2.744 2.662-2.745l3.409-.329c.334-.003 4.156.254 4.407.671 4.569 5.319-.179 9.725 8.967 9.727 2.328-.162 2.829-.662 3.242-.661.758.004 1.412.085 2.08.085 3.157-.002 6.07-.33 9.309-.741.248-.418 1.909-3.734 1.911-4.657-.002-.157-.575-1.159-.577-1.326-.081-.499-.58-4.238-.744-4.657zm27.735 32.354c0-.41.17-.748.747-.998.832.333.835 1.582.835 2.163-.754-.002-1.582-.328-1.582-1.165zm4.08-11.637l.016-18.786c-.002-1.245 6.733-.572 6.733-4.155.002-3.319-.745-6.395-.745-9.883-.243 0-1.327-.832-1.491-.914-.75-.256-3.829-.832-4.485-1.002l-.75-1.415.007-9.975-.577-1.993c-.09 0-1.167-.089-1.584-.089-2.574 0-19.53 3.484-19.533 4.81l-.007 7.978c.003.168-.666.587-1 .669-.5.159-3.406.658-3.904.66-.502 3.486-.755 5.9-.757 9.144-.005 4.651 1.241 4.908 2.657 4.906 1.332 0 2.246.168 2.749 1.246l.652 12.219c0 1.251-.665 1.995-.665 3.243 0 .827-.006 1.165.656 1.995l-.002 10.642c-.005.076 1.412 2.412 1.91 3.327 1.833 2.571 10.553 4.658 14.043 4.657 1.99-.493.835-.663 3.992-.659 1.08-.085 6.317-.992 7.396-1.323 1.326-1.91 1.412-4.405 1.415-6.649l.007-.501c-.003-1.744-.003-3.077-.747-4.819-.501.083-1.003.17-1.496.16-2.333.004-4.738-.999-6.573-2.249 0 0-.079-.165-.077-.244 0-.831 2.076-.996 2.16-1zM319.472 2.848l-18.039-.011c-2.576-.002-2.741 1.994-2.743 3.991a33.1 33.1 0 0 0 .078 1.33c0 .168.667 1.828.663 1.989.004.257-.664 1.836-.663 2.001-.08.164-.082 1.16-.08 1.495-.005 1.249.324 1.741 1.408 1.829l9.973.67 1.33-.664 8.729.008c.082 0 .585-2.324.66-3.324.004-.174.091-2.744.091-3.657 0-.583-.078-3.157-.078-3.737 0 0-.832-1.918-1.329-1.92m-2.028 47.463c-.416-.002-.585-.582-.578-.832 0-.334.334-.585.579-.58.169.163.335.498.332.749.005.332-.164.573-.333.663zm-8.398-.007c.002-.083-.248-.665-.248-.744.004-.671.67-.916 1.253-1.334 0 0 .085.251.082.332-.005.666-.165 1.747-1.087 1.746zm-3.904 4.571c-.999-.002-1.997-1.168-1.997-2.079 1.169-.007 2.328.581 2.911 1.411-.247.583-.497.668-.914.668zm-3.896-21.281c0-1.252-.912-3.579-.742-3.409 0-1.663.999-4.404 3.158-4.404 0 1.579-1.665 1.665-1.663 2.993 0 1.328.658 2.572 2.16 2.741-.584.914-2.088 2.079-2.913 2.079zm3.493-4.738c-.249.583-.496.745-.998.75-.08.002-.327-.089-.327-.089l.742-1.326.583.665zm15.376 7.409c.002-.336.495-1.246.665-1.416l.01-15.293c0-.089-.998-.912-1.41-1.081-.917.25-1.579 1.085-1.914 1.081-.248 0-.665-.499-.665-.745l-18.038-.014-.01 19.364c.159.168.667 1.081.664 1.421 0 .155-.5.578-.669.578l-.005 6.067c.172-.007.668.492.666.661.002.246-.494 1.162-.666 1.331l-.013 19.364c.001.67 1.916 1.334 2.244 1.335.415 0 1.079.083 1.747.082 1.411.001 2.993-.241 3.323-1.413.918 1.338 2.326 1.338 3.739 1.338l2.993.003c2.491-.167 7.318-.573 7.315-.658l.662-.672.02-25.348c-.167-.172-.66-1.08-.664-1.327.006-.168.669-1.248.669-1.334-.003-.083.083-.741.08-.996 0-.33-.08-1-.08-1-.003-.163-.661-1.243-.663-1.328zm75.706 15.676l-.578-2.66c.747 0 1.328.169 1.33.748 0 .336-.503 1.662-.752 1.912zm-11.972 2.735c-.412-.585-.829-1.327-.832-2.073l1.577-.005c.004.745-.408 1.498-.745 2.078zm-2.331 8.721c-.084.004-.251-.077-.336-.079-.081-.249-.081-1.158-.081-1.325.003-1.492.17-2 1.833-1.993-.085 1.244-.253 3.405-1.416 3.397zm1.015-18.779l-.003.33c-.004 1.17-.835 2.166-1.994 2.328.002-1.079.581-2.661 1.997-2.658zm1.995-3.321c.001.493-.587.739-1.081.742-.917 0-1-1.824-1.002-2.492 1.006 0 2.083.583 2.083 1.75zm-8.076 18.035c-.329.992-2.245 3.315-2.665 3.315h-.912c.003-.252.168-1.745.249-1.992.665-2.162 3.161-3.075 3.33-5.151.165.25 1.33 1.581 1.326 1.748.003.58-1.243 1.99-1.328 2.08zm-3.991-2.337c-.003-.497.169-.747.666-.992l.66 1.915c-.496-.255-1.326-.503-1.326-.923zm-9.316 8.306l.005-1.999 1.327.583-1.332 1.416zm34.674-16.686c-.167-1.247-2.407-3.986-3.322-4.652-.004.248-.417 1.246-.66 1.324-.499.006-.751-.412-1.167-.418-.002-.746.575-1.322.578-2.319.002-2.16-3.069-3.997-5.064-3.995-.832-.005-1.493-.002-1.661.747-.416-1.414-.919-2.08-2.325-2.08-1.085 0-1.662.747-2.662.744-1.744.004-1.74-1.496-3.078-1.994-2.904-1.33-7.64-1.253-10.637-1.42-.829-.003-5.895-.422-7.393-.585-1.332-.166-5.984.159-5.986-2.752.002-2.075 4.743-2.069 5.991-2.069 1.911 0 5.149.088 6.731.749.244.088 1.739 1.829 1.991 1.909 2.164.84 7.729.846 9.889.846 5.905.003 8.143-.083 14.635-.661 1.575.005 2.157-1.988 2.16-3.321-.165-.583-1.988-3.822-2.657-4.738-5.48-8.067-22.269-8.076-30.995-8.085-10.971-.004-24.021-.014-31.098 8.709-1.828 2.329-.995 5.316-2.659 7.389.078 1.171.99 6.241 1.324 7.322 2.07 7.397 20.439 8.413 26.006 8.739 1.497.001 7.567.507 8.727.592 1.501.251 6.065.585 6.066 2.914-.004 3.154-2.745 3.243-5.241 3.24-3.321-.002-6.062-.257-8.808-1.423-.992-.412-2.906-2.74-4.315-2.743-1.747 0-3.413.746-5.076.75-4.32-.004-8.646-.759-13.047-.76l-4.987-.006c-.246.168-1.16 1.08-1.329 1.325l-.003.335c-.005 6.48 5.066 9.562 9.966 12.389.745.502 2.329 1.669 3.327 1.999 4.487 1.335 9.477 1.589 14.04 1.593l.005-4.66c2.661.003-.166 4.491 5.317 4.491.587.004 1.997-.082 1.997-.082.254.002 1.909-.577 2.073-.579.091-.003.588.581.671.579.162.171 1.076.585 1.327.668 5.236-.072 9.646-.739 14.712-1.817l5.326-1.491c.415-.169 2.997-2.489 3.325-2.655 2.077-1.248 2.071.162 3.328-1.993-.338.077-.586.166-.835.161-.912.002-.994-.828-.996-1.744.418-.004 1.167.084 1.911.086 1.577.002 3.326-.329 3.326-1.993.002-1.578-.163-2.58-.746-4.239h2.489s-.156-2.994-.491-4.326zm64.326 8.447c.002 1.077-.166 2.573-1.245 2.573-.582-.005-1.081-.418-1.086-.998.007-1.161 1.083-2.577 2.336-2.577l-.005 1.002zm-2.98-17.462l-.58-.585c.246-.497 1.167-1.567 1.994-1.578l.003.582c-.83.003-1.25 1-1.417 1.581zm-2.006 15.713c0-.503.166-.755.663-.999l.001.329c.004.831.829 1.582.835 2.578-1 .001-1.498-1.082-1.499-1.908zm-.741-12.976l1.415.008v1.406c-.749.004-1.413-.664-1.415-1.414zM419.1 53.62c-.832-.25-1.331-1.414-1.334-2.246 0-.166.421-.412.413-.667 1.088 0 1.744.751 2.247 1.587L419.1 53.62zm-1.993-7.317c-.003-.245.328-.496.666-.501.33.005.663.088.664.504-.085.253-.417.577-.668.582-.246-.002-.58-.334-.662-.585zm57.507 10.851v-.831c0-1.587.51-14.385.592-16.045l-.001-.667-.569-9.308c-4.322-9.729-13.546-13.472-23.762-13.482-1.17-.005-4.739.082-4.991.079-.75.084-5.904.997-7.399 1.327-1.909.415-6.985 3.401-8.973 3.405l-.334-.004c-.169-.838-.667-4.576-.667-5.405-.077-.914-.077-3.655-.077-6.315.004-2.661.002-5.404.087-6.318 0 0-.826-2.075-1.409-2.078l-21.278-.009-.018 20.692c.336 1.494.669 3.151.664 4.733l-.002.666c0 .081-.664 1.163-.668 1.25 0 .169.668.658.668.745-.003.25-.502 1.171-.664 1.329-.255 1.583-.675 9.066-.677 10.643 0 .335.585 2.412.666 2.743.253 1.168.665 3.899.665 3.899l-.669.752-.016 16.717c.005 2.486 1.915 2.653 3.906 2.655 4.075.008 7.654-.743 11.643-.747l1.077.007c.334-.5.579-.664 1.084-.66.998-.005.996.744 2.322.746 2.412-.002 2.746-1.833 2.754-3.984-.008-1.918-.917-3.493-.919-5.323l-1.157-.004c.578-.167 1.825-1.661 1.993-2.076-.003-.081.083-.833.083-1.244.011-2.91-2.827-3.411-2.826-3.659.005-.995 2.498-4.072 2.743-5.736.094-.75.427-6.148.678-6.647.165-.5 2.996-3.324 3.99-4.075 2.911-2.07 5.654-2.741 8.981-2.736 8.892.01 10.135 4.251 10.379 12.721.004 1.586.077 5.987.073 10.39 0 4.408-.079 8.818-.085 10.399.58.994 1.076 1.406 1.991 1.408.756 0 1.331-.161 1.332-1.412l1.331 1.33 16.701.016c1.415-.005 1.423-5.069 1.423-6.4-.002-1.496-.668-2.245-.665-3.487zM230.297 27.219l-1.333 1.336.663.576.67-1.912m7.364 40.903c1.164.004 1.501-1.252 1.501-2.157l-1.246.247-.255 1.91m-6.062-6.241c-.166-.163-1.158-1.247-1.325-1.331-.088-.001-.255-.08-.336-.084-.086.006-.251.084-.33.083-.332.251-1.665 1.662-1.996 1.994.083.002.253-.081.413-.081 1.414.002 4.738 1.331 4.904 2.082.411 1.33-.418 4.074 1.995 4.074.079-.004.578-.082.746-.085-.085-.667-.587-3.903-.748-4.655-.411-2.249-1.244-.916-3.323-1.997m-2.649-14.712c-.083.002-.584-.082-.666-.084-1.164 0-1.667.829-1.994 2.072 0 0 .244.085.331.082.993-.248 2.076-1.239 2.329-2.07m12.621 20.871c.836.003 1.412-.33 1.417-1.495l-2.66-.163c-.009 1.238.577 1.658 1.243 1.658m48.845-50.748c0 .503-.001 1 .662 1.166.252.005.752-.421.753-.583.079-.411.246-2.577.246-2.905-1.249-.004-1.655 1.163-1.661 2.322"/><path d="M286.505 35.904c-.083-.167-.083-.824-.081-.99-.002-1.503.499-2.248 2.159-3.002.668.17.662.754.662 1.336-.002 1.331-1.662 2.245-2.74 2.656zm-1.333 1.662c-.251.004-.58-.079-.673-.329.008-.247.34-.333.673-.333.333.004.663.086.663.336-.087.248-.418.326-.663.326zm-33.37 17.013c-.16 0-.495-.086-.497-.17.002-.158.164-.992.411-.998l.585.588c0 .25-.247.582-.499.58zm.164 10.061c-.417-.003-.754-.168-1.004-.749l.341.001c.492-.001.739.084.994.663 0 0-.249.087-.331.085zm-2.322-13.383c.084-.67.583-1.66 1.331-1.663l-.002 2.241-1.329-.578zm-3.334 13.955c-.669-.165-.669-.663-.664-1.163v-.828l1.331 1.328-.667.663zm-2.663-1.996l.007-1.331.663.665-.67.666zm40.205-48.253l-.005 2.329c-.662 0-1.408-.412-1.408-1.164 0-.668.744-1.16 1.413-1.165zm-1.331 10.883l-.665.001c-1.244 0-2.081.744-3.329.745-.334-.001-1.252-.081-1.332-.083-.08-.081-.581-.67-.663-.67-.243-.003-1.252.752-1.41.915l-2.491-.087c-.959-.3-3.788-.392-6.372-.408l-7.458-.263-.406-6.155 1.992-2.66c.087.58.334 1.336.997 1.336 0 0 .251 0 .339-.085.082-.5.244-3.412 1.661-3.41.084 0 .332.082.332.082l1.326 2.748-1.329.581c.081-.005.585.087.668.084 1.996 0 2.658-1.417 2.658-3.328l.002-.659c.076.021.123.066.184.099.129.264.199.691.236 1.152v2.124c.144.273.273.488.346.534.581-.08.744-.581.746-1.072.002-.752-.334-1.582-.33-1.747l1.082-.002c1.992-.003 2.903.09 2.906 3.326 1.66.004 2.744-2.487 3.991-2.489.747.007.995 1.166 1.58 1.415l.331-.005c.747.002.831-.745 1.744-.745.172 0 .58.087.58.087.334.167.668 1.338.668 1.825-.002.164 2.996-1.162 3.32-1.157.174-.082 1.249.58 1.337.582.081 0 .578.085.744.083.997.006 1.498-.083 2.661-.668-.75-1.327-.745-2.072-.745-3.404 0-1.167.082-1.992 1.412-1.995.497.004 1.086.004 1.249.667l.753-1.332V4.497c.006-1.165-2.238-2.741-3.241-2.753-1.91.005-3.407.747-5.322.745l-.826.004c-.915-.004-1.66-.169-1.994-1.331-.171 1.162-.252 1.329-.917 1.331-1.828-.164-5.069-.67-5.069-.67v-.92c-.749.009-1.248.998-1.333 1.581-.94-.274-2.572-.392-4.425-.423l-.007-.001c-1.609-.221-5.968.417-5.968.417l-7.653-.009c-.664-.413-1.081-.749-1.747-.747-1.245-.005-.416.413-19.041.735-.909-.005-2.655 1.742-2.657 2.653l-.005 11.389c-.25.335-1.162 2.165-1.331 2.661 0 0-.087.247-.084.336 0 3.322 1.494 6.312 1.491 9.636-.001.495-.093 2.33-.085 2.748-1.164.159-2.081 1.245-2.079 2.402.662.004 1.83.007 2.077.917-.084.085-2.248 1.58-2.251 2.577l2.251.003c-.418 1.493-1.253 2.241-2.661 2.746.656.491 3.403 5.482 3.403 6.065-.003.167-.501.58-.752.578l1.333 1.331s-2.005.832-1.999 1.41c-.001.17.663 1.751.659 1.915.091.662.582 5.399.749 6.069.167.993.912 2.075 1.988 2.081.918-.002 1.422-.334 1.918-1.417.248.17 1.166 1.083 1.413 1.331 0 .086-.253.587-.251.671h-1.911c-.005 2.157 5.57 2.325 6.813 3.324.666.589 3.486 3.415 3.985 3.993l.666-.003 1.333-2.658c0 .171.492.754.661.753.251 0 1.083-.416 1.251-.666l-.005.415c.005.749.586 1.58 1.414 1.581 1.084.002 1.664-.997 2.656-1.327 3.329-1.412 3.408-2.078 3.416-5.9.005-2.498-1.246-3.991-1.24-6.234l1.001.003c-.003-1.162.082-6.82.165-7.978.258-2.917.753-1.856 2.077-5.096l1.889-.33c.033.039.723.159.549.268-1 .625.142 1.001.139 1.584.005.914.747.999 1.501.999 1.914.002 1.914-.835 2.911-.83a.873.873 0 0 1 .73.338c.071.059.275.017.54-.079l.497.497 6.068-.666.007-1.996c.324.336 2.243 1.749 2.659 2.001 1.327 0 1.91-1.413 2.99-1.414 1.331 0 2.657 2.08 4.317 2.08.255.002 1.829-.658 1.994-.662.336 0 1.336-.082 2.328-.082.995 0 1.995.086 2.33.082l.752-1.988.002-13.299c.008-.921-7.141-.923-9.384-1.422z"/></g></svg>